<?xml version="1.0" encoding="utf-8"?>
<!-- Generator: Adobe Illustrator 16.0.0, SVG Export Plug-In . SVG Version: 6.00 Build 0)  -->
<!DOCTYPE svg PUBLIC "-//W3C//DTD SVG 1.1//EN" "http://www.w3.org/Graphics/SVG/1.1/DTD/svg11.dtd">
<svg version="1.1" id="Layer_1" xmlns="http://www.w3.org/2000/svg" xmlns:xlink="http://www.w3.org/1999/xlink" x="0px" y="0px"
	 width="500px" height="400px" viewBox="0 0 500 400" enable-background="new 0 0 500 400" xml:space="preserve">
<path fill="#6CABBC" d="M250.078,110.156c-49.688,0-89.766,40.078-89.766,89.766s40.078,89.766,89.766,89.766
	s89.766-40.078,89.766-89.766S299.766,110.156,250.078,110.156z M250.078,258.281c-32.109,0-58.359-26.172-58.359-58.359
	s26.172-58.359,58.359-58.359s58.359,26.172,58.359,58.359S282.188,258.281,250.078,258.281z M364.453,106.484
	c0,11.641-9.375,20.938-20.938,20.938c-11.641,0-20.938-9.375-20.938-20.938s9.375-20.938,20.938-20.938
	S364.453,94.922,364.453,106.484z M423.906,127.734c-1.328-28.047-7.734-52.891-28.281-73.359
	c-20.469-20.469-45.313-26.875-73.359-28.281c-28.906-1.641-115.547-1.641-144.453,0c-27.969,1.328-52.813,7.734-73.359,28.203
	s-26.875,45.313-28.281,73.359c-1.641,28.906-1.641,115.547,0,144.453c1.328,28.047,7.734,52.891,28.281,73.359
	s45.313,26.875,73.359,28.281c28.906,1.641,115.547,1.641,144.453,0c28.047-1.328,52.891-7.734,73.359-28.281
	c20.469-20.469,26.875-45.313,28.281-73.359C425.547,243.203,425.547,156.641,423.906,127.734z M386.563,303.125
	c-6.094,15.313-17.891,27.109-33.281,33.281c-23.047,9.141-77.734,7.031-103.203,7.031s-80.234,2.031-103.203-7.031
	c-15.313-6.094-27.109-17.891-33.281-33.281c-9.141-23.047-7.031-77.734-7.031-103.203s-2.031-80.234,7.031-103.203
	c6.094-15.313,17.891-27.109,33.281-33.281c23.047-9.141,77.734-7.031,103.203-7.031s80.234-2.031,103.203,7.031
	c15.313,6.094,27.109,17.891,33.281,33.281c9.141,23.047,7.031,77.734,7.031,103.203S395.703,280.156,386.563,303.125z"/>
</svg>
