<?xml version="1.0" encoding="utf-8"?>
<!-- Generator: Adobe Illustrator 16.0.0, SVG Export Plug-In . SVG Version: 6.00 Build 0)  -->
<!DOCTYPE svg PUBLIC "-//W3C//DTD SVG 1.1//EN" "http://www.w3.org/Graphics/SVG/1.1/DTD/svg11.dtd">
<svg version="1.1" id="Layer_1" xmlns="http://www.w3.org/2000/svg" xmlns:xlink="http://www.w3.org/1999/xlink" x="0px" y="0px"
	 width="500px" height="400px" viewBox="0 0 500 400" enable-background="new 0 0 500 400" xml:space="preserve">
<path fill="#6CABBC" d="M387.5,25h-275C91.79,25,75,41.789,75,62.5v275c0,20.711,16.79,37.5,37.5,37.5h107.227V256.008h-49.219V200
	h49.219v-42.688c0-48.555,28.906-75.375,73.18-75.375c21.203,0,43.375,3.781,43.375,3.781v47.656h-24.43
	c-24.07,0-31.578,14.938-31.578,30.258V200h53.734l-8.594,56.008h-45.141V375H387.5c20.711,0,37.5-16.789,37.5-37.5v-275
	C425,41.789,408.211,25,387.5,25z"/>
</svg>
