<?xml version="1.0" encoding="utf-8"?>
<!-- Generator: Adobe Illustrator 16.0.0, SVG Export Plug-In . SVG Version: 6.00 Build 0)  -->
<!DOCTYPE svg PUBLIC "-//W3C//DTD SVG 1.1//EN" "http://www.w3.org/Graphics/SVG/1.1/DTD/svg11.dtd">
<svg version="1.1" id="Layer_1" xmlns="http://www.w3.org/2000/svg" xmlns:xlink="http://www.w3.org/1999/xlink" x="0px" y="0px"
	 width="500px" height="400px" viewBox="0 0 500 400" enable-background="new 0 0 500 400" xml:space="preserve">
<path fill="#6CABBC" d="M408.883,118.528c0.254,3.553,0.254,7.107,0.254,10.66c0,108.375-82.486,233.248-233.249,233.248
	c-46.447,0-89.594-13.452-125.888-36.802c6.599,0.762,12.944,1.016,19.797,1.016c38.324,0,73.604-12.944,101.776-35.025
	c-36.041-0.762-66.244-24.365-76.65-56.854c5.077,0.762,10.152,1.27,15.483,1.27c7.36,0,14.721-1.016,21.573-2.792
	c-37.563-7.614-65.736-40.609-65.736-80.457v-1.015c10.913,6.091,23.604,9.898,37.055,10.405
	c-22.081-14.721-36.547-39.848-36.547-68.274c0-15.228,4.06-29.188,11.167-41.371c40.355,49.746,101.016,82.233,169.035,85.787
	c-1.269-6.092-2.03-12.436-2.03-18.781c0-45.178,36.548-81.98,81.979-81.98c23.604,0,44.924,9.898,59.898,25.888
	c18.527-3.553,36.294-10.406,52.03-19.797c-6.092,19.036-19.036,35.026-36.04,45.178c16.497-1.776,32.487-6.346,47.207-12.69
	C438.833,92.386,424.873,106.853,408.883,118.528z"/>
</svg>
